<svg height="65" viewBox="0 0 65 65" width="65" xmlns="http://www.w3.org/2000/svg"><g fill="none" fill-rule="evenodd"><circle cx="32.5" cy="32.5" fill="#fff" r="32.5"/><g stroke="#d9283a" transform="translate(14 17.005706)"><path d="m2.80634841 13.6084275c-1.58822568-3.5517559-.9313904-7.86292728 1.97050584-10.78654719 3.71494309-3.74275325 9.76060045-3.76529784 13.50335375-.05035475.0168474.01672227.0336325.0335073.0503547.05035475l.8471068.85344825.8471068-.85344825c3.7149431-3.74275325 9.7606005-3.76529784 13.5033538-.05035475.0168474.01672227.0336324.0335073.0503547.05035475 3.7509012 3.77898052 3.7509012 9.87619139 0 13.65517189l-14.4008153 14.5086202c-5.7035932-5.7462905-9.98128805-10.0560083-12.83308464-12.9291535"/><path d="m7.17723718 15.4957834h4.91991922l.6207854-5.0781986 1.5939319 2.1500462 1-6.57333665 2 16.15812745 3.7737134-11.734837 2.7741657 9.6317912 1.1762902-5.3316988h5.4836599" stroke-linecap="square" stroke-linejoin="bevel"/><path d="m5.5 15.494294h-2.5"/><path d="m2.089715 15.494294h-1.589715"/></g></g></svg>