<svg height="65" viewBox="0 0 65 65" width="65" xmlns="http://www.w3.org/2000/svg"><g fill="none" fill-rule="evenodd"><circle cx="32.5" cy="32.5" fill="#fff" r="32.5"/><g transform="translate(14 16)"><path d="m25.0186489 18.5-.9191209-1h3.900472c4.6944204 0 8.5 3.8055796 8.5 8.5v7.0069691h-1v-7.0069691c0-4.1421356-3.3578644-7.5-7.5-7.5z" fill="#d52333" fill-rule="nonzero"/><path d="m0 33v-8.4705882c0-4.1583793 3.32588472-7.5294118 7.42857143-7.5294118h11.14285717c4.1026867 0 7.4285714 3.3710325 7.4285714 7.5294118v8.4705882" stroke="#d62a3a" stroke-dasharray="2"/><g stroke="#d52333"><path d="m19.4948993 12.5152557c1.1791691 1.5130486 3.0095883 2.4847443 5.0648723 2.4847443 3.5568399 0 6.4402284-2.9101491 6.4402284-6.5 0-3.58985087-2.8833885-6.5-6.4402284-6.5-1.3614424 0-2.6242168.4263685-3.6643908 1.15402294"/><circle cx="13" cy="7" fill="#fff" r="7"/></g></g></g></svg>