<svg height="106" viewBox="0 0 106 106" width="106" xmlns="http://www.w3.org/2000/svg"><g fill="none" fill-rule="evenodd"><circle cx="53" cy="53" fill="#d62434" r="53"/><g stroke="#fff" stroke-linejoin="round" stroke-width="2" transform="translate(32.678218 33)"><path d="m37 12c0-3.86599325-3.1340068-7-7-7s-7 3.13400675-7 7c0 3.8659932 3.1340068 7 7 7" transform="matrix(-1 0 0 -1 60 24)"/><path d="m18 33v-2.1024223c0-6.5708507 5.1487254-11.8975777 11.5-11.8975777s11.5 5.326727 11.5 11.8975777v2.1024223z"/><path d="m27 10c0-5.5228475-4.4771525-10-10-10s-10 4.4771525-10 10 4.4771525 10 10 10"/><path d="m33 40h-33v-3.0034604c0-9.3869296 7.38730163-16.9965396 16.5-16.9965396" stroke-dasharray="4"/></g></g></svg>