<svg height="65" viewBox="0 0 65 65" width="65" xmlns="http://www.w3.org/2000/svg"><g fill="none" fill-rule="evenodd"><circle cx="32.5" cy="32.5" fill="#fff" r="32.5"/><g stroke="#d92d3d" transform="translate(13.5 14)"><g transform="translate(16.5)"><path d="m3.264661 8.295243v-7.905266"/><path d="m0 3.20117856 3.20117856-3.20117856 3.20117857 3.20117856"/></g><g transform="matrix(1 0 0 -1 16.5 38)"><path d="m3.264661 8.295243v-7.905266"/><path d="m0 3.20117856 3.20117856-3.20117856 3.20117857 3.20117856"/></g><g transform="matrix(0 1 -1 0 39 15.5)"><path d="m3.264661 8.295243v-7.905266"/><path d="m0 3.20117856 3.20117856-3.20117856 3.20117857 3.20117856"/><g transform="matrix(1 0 0 -1 0 39)"><path d="m3.264661 8.295243v-7.905266"/><path d="m0 3.20117856 3.20117856-3.20117856 3.20117857 3.20117856"/></g></g></g><path d="m33 44c6.0751322 0 11-4.9248678 11-11s-4.9248678-11-11-11-11 4.9248678-11 11 4.9248678 11 11 11z" stroke="#d62a3a" stroke-dasharray="2"/></g></svg>