<svg height="65" viewBox="0 0 65 65" width="65" xmlns="http://www.w3.org/2000/svg"><g fill="none" fill-rule="evenodd"><circle cx="32.5" cy="32.5" fill="#fff" r="32.5"/><g stroke="#d62a3a" transform="translate(14.82233 14.82233)"><path d="m22.0022416 8.05135794c-.1526757 1.78957556-.2347564 3.68784286-.2347564 5.65407986 0 10.7695526 2.4624339 19.5 5.5 19.5" stroke-linecap="round" stroke-linejoin="round" transform="matrix(-.70710678 .70710678 .70710678 .70710678 27.267485 -11.294562)"/><path d="m17.502907 37.2500585c2.5185551 0 4.6417262-6.0018886 5.2937456-14.1915807.1343648-1.6876901.2062544-3.4682893.2062544-5.3084193 0-10.7695526-2.4624338-19.49999998-5.5-19.49999998-2.5204994 0-4.6450041 6.01115932-5.295253 14.21055238" stroke-dasharray="2" transform="matrix(-.70710678 .70710678 .70710678 .70710678 17.502907 -7.249942)"/><g stroke-linecap="round" stroke-linejoin="round"><ellipse cx="17.67767" cy="17.67767" rx="5.5" ry="19.5" transform="matrix(.70710678 .70710678 -.70710678 .70710678 17.67767 -7.322331)"/><circle cx="17.67767" cy="17.67767" fill="#fff" r="2.5"/></g></g></g></svg>