<?xml version="1.0" encoding="UTF-8"?><svg id="Art" xmlns="http://www.w3.org/2000/svg" width="358.37" height="60" viewBox="0 0 447.97 74.77"><defs><style>.cls-1{fill:#1080ff;}.cls-2{fill:#bbddfc;}.cls-3{fill:#fff;}.cls-4{fill:#ff4b3f;}.cls-5{fill:#1c2156;}</style></defs><g id="Logo"><path id="Wordmark" class="cls-5" d="M383.36,24.62h9.28v7.14h-9.28v15.5c0,3.89.84,6.16,4.61,6.16.91,0,2.66-.26,4.15-.58v6.81c-2.27.58-5.12.97-7.14.97-7.14,0-10.7-3.44-10.7-11.03v-17.84h-5v-7.14h5v-6.03l9.08-3.76v9.79ZM175.24,18.53h9.15v-8.63h-9.15v8.63ZM170.25,31.76h4.99v28.09h9.15V24.62h-14.14v7.14ZM355.19,18.53h9.15v-8.63h-9.15v8.63ZM350.19,31.76h4.99v28.09h9.15V24.62h-14.14v7.14ZM132.17,46.1c0,9.15-7.2,13.75-18.03,13.75h-18.81V19.31h-5.71v-7.14h22.96c6.16,0,9.34.84,11.81,2.4,2.85,1.82,5,4.87,5,9.41,0,5-3.11,8.82-8.17,10.18v.13c6.81,1.17,10.96,5.64,10.96,11.81ZM104.73,31.5h7.39c5.25,0,7.78-2.53,7.78-6.03,0-4.09-2.46-6.16-7.27-6.16h-7.91v12.2ZM122.5,45.58c0-4.54-3.31-7.01-9.02-7.01h-8.76v14.08h8.82c6.36,0,8.95-2.85,8.95-7.07ZM443.56,52.71V9.25l-9.15,3.76v46.84h13.56v-7.14h-4.41ZM256.59,52.26c-9.34,0-14.86-6.29-14.86-16.41s5.51-16.54,14.08-16.54c2.32,0,4.27.28,6.15.71v9.92l8.11-3.37v-11.68c-4.22-2.46-8.81-3.5-13.87-3.5-14.34,0-24.13,8.82-24.13,24.58s8.69,24.65,24.13,24.65c5.58,0,10.62-1.62,14.04-3.51l-2.01-7.66c-3.03,1.54-6.84,2.8-11.64,2.8ZM215.01,23.98c-4.99,0-9.08,2.08-11.35,5.25h-.13l-.58-4.61h-13.49v7.14h5.06v28.09h9.15v-16.28c0-8.69,4.61-11.94,8.56-11.94s5.45,2.4,5.45,7.78v20.44h9.08v-22.51c0-8.82-4.02-13.36-11.74-13.36ZM347.6,42.21c0,10.9-6.23,18.42-15.24,18.42-5.38,0-8.56-2.14-10.19-4.35h-.13v14.76l-9.08,3.73V31.76h-4.61v-7.14h12.97l.58,4.61h.13c1.17-1.82,3.89-5.25,10.31-5.25,9.41,0,15.24,7.2,15.24,18.23ZM338.32,42.21c0-6.55-3.24-10.9-8.24-10.9s-8.17,4.41-8.17,10.83,3.18,10.96,7.98,10.96,8.43-4.41,8.43-10.9ZM146.18,60.63c-6.88,0-11.22-4.28-11.22-10.83,0-5.97,3.83-9.6,10.18-11.09,3.11-.71,7.01-.91,10.83-.91,0-5.12-2.08-6.88-7.4-6.88-3.18,0-6.36.78-9.86,2.34v-7.14c3.37-1.43,7.14-2.14,11.03-2.14,11.16,0,15.25,5.06,15.25,14.6v14.14h4.41v7.14h-12.46l-.71-3.57h-.13c-1.95,2.01-4.67,4.35-9.93,4.35ZM155.98,43.5c-1.23,0-4.41.13-6.1.39-3.7.58-5.77,2.53-5.77,5.77,0,2.86,1.88,4.41,4.67,4.41,3.83,0,7.2-2.6,7.2-7.65v-2.92ZM284.29,60.63c-6.88,0-11.22-4.28-11.22-10.83,0-5.97,3.83-9.6,10.18-11.09,3.11-.71,7.01-.91,10.83-.91,0-5.12-2.08-6.88-7.39-6.88-3.18,0-6.36.78-9.86,2.34v-7.14c3.37-1.43,7.14-2.14,11.03-2.14,11.16,0,15.25,5.06,15.25,14.6v14.14h4.41v7.14h-12.46l-.71-3.57h-.13c-1.95,2.01-4.67,4.35-9.92,4.35ZM294.09,43.5c-1.23,0-4.41.13-6.1.39-3.7.58-5.77,2.53-5.77,5.77,0,2.86,1.88,4.41,4.67,4.41,3.83,0,7.2-2.6,7.2-7.65v-2.92ZM406.39,60.63c-6.88,0-11.22-4.28-11.22-10.83,0-5.97,3.83-9.6,10.18-11.09,3.11-.71,7.01-.91,10.83-.91,0-5.12-2.08-6.88-7.4-6.88-3.18,0-6.36.78-9.86,2.34v-7.14c3.37-1.43,7.14-2.14,11.03-2.14,11.16,0,15.25,5.06,15.25,14.6v14.14h4.41v7.14h-12.45l-.71-3.57h-.13c-1.95,2.01-4.67,4.35-9.92,4.35ZM416.18,43.5c-1.23,0-4.41.13-6.1.39-3.7.58-5.77,2.53-5.77,5.77,0,2.86,1.88,4.41,4.67,4.41,3.83,0,7.2-2.6,7.2-7.65v-2.92Z"/><g id="Symbol"><polygon id="White_middle_left" class="cls-3" points="0 24 0 48 24 36 0 24"/><polygon id="Red_bottom_left" class="cls-4" points="24 36 0 48 0 72 48 48 24 36"/><polygon id="Indigo_blue_bottom" class="cls-5" points="0 72 72 72 72 60 48 48 0 72"/><polygon id="Azure_blue_top_left" class="cls-1" points="48 24 0 0 0 24 24 36 48 24"/><polygon id="Indigo_blue_top" class="cls-5" points="48 24 72 12 72 0 0 0 48 24"/><polygon id="Cloud_blue_middle_right" class="cls-2" points="48 24 24 36 48 48 72 60 72 36 72 12 48 24"/></g></g></svg>