<?xml version="1.0" encoding="UTF-8"?>
<svg width="78px" height="77px" viewBox="0 0 78 77" version="1.1" xmlns="http://www.w3.org/2000/svg" xmlns:xlink="http://www.w3.org/1999/xlink">
    <title>Group 4备份 3</title>
    <g id="中文" stroke="none" stroke-width="1" fill="none" fill-rule="evenodd">
        <g id="ESG" transform="translate(-313.000000, -1706.000000)">
            <g id="编组-29" transform="translate(162.000000, 987.000000)">
                <g id="编组-2" transform="translate(0.000000, 90.000000)">
                    <g id="编组-23" transform="translate(0.000000, 341.000000)">
                        <g id="编组-25" transform="translate(94.000000, 145.000000)">
                            <g id="编组-34" transform="translate(0.000000, 14.000000)">
                                <g id="编组-33备份" transform="translate(69.666667, 138.000000)">
                                    <g id="编组-22" transform="translate(0.000000, 3.000000)">
                                        <circle id="Oval-Copy-5" stroke="#F5F6F8" stroke-width="12" fill="#D62434" cx="26.5" cy="26.5" r="32.5"></circle>
                                        <g id="编组-27" transform="translate(13.000000, 13.000000)" stroke="#FFFFFF" stroke-width="2">
                                            <circle id="椭圆形" cx="13.5" cy="13.5" r="13.5"></circle>
                                            <path d="M8,10 L19,10 L19,14.5 C19,17.5375661 16.5375661,20 13.5,20 C10.4624339,20 8,17.5375661 8,14.5 L8,10 L8,10 Z" id="矩形"></path>
                                            <line x1="10.9830874" y1="10.5" x2="10.9830874" y2="5.5" id="路径-14"></line>
                                            <line x1="16.0046317" y1="10.5" x2="16.0046317" y2="5.5" id="路径-14备份"></line>
                                            <line x1="13.5" y1="20.5" x2="13.5" y2="27" id="路径-19"></line>
                                        </g>
                                    </g>
                                </g>
                            </g>
                        </g>
                    </g>
                </g>
            </g>
        </g>
    </g>
</svg>